#!OML:ASF X:\für Bonn\!DataBase\2005_08_12_Daniel\c3d\Daniel.ASF
:FULLY-SPECIFIED
:DEGREES
249
root 1.27022 16.7274 0.696094 -564.527 -100.084 553.612
lowerback 15.2102 1.57466 -1.7226
upperback 2.56549 1.29825 -4.78724
thorax -5.72861 0.547017 -4.36353
lowerneck 4.41531 -5.07958 1.59948
upperneck 4.68131 -7.17992 8.32992
head 0.995099 -3.60331 2.37852
rclavicle -1.02374e-014 -7.95139e-015
rhumerus -3.54943 2.52285 -82.4577
rradius 48.6141
rwrist 31.011
rhand -30.0957 722.323
rfingers 7.12502
rthumb -3.40991 -27.6294
lclavicle -1.02374e-014 -7.95139e-015
lhumerus -189.345 201.143 -90.3908
lradius 52.4793
lwrist -1.86543
lhand -16.4393 5.00037
lfingers 7.12502
lthumb 9.7763 34.7534
rfemur 1.91709 2.02747 13.5083
rtibia 40.7365
rfoot -28.1469 -6.57657
rtoes -11.9568
lfemur -187.312 190.799 -200.606
ltibia 47.6077
lfoot 337.474 -9.80947
ltoes 3.56597
250
root 1.27002 16.7335 0.69066 -564.418 -99.9005 553.701
lowerback 15.0193 1.62697 -1.69902
upperback 2.55639 1.37627 -4.84329
thorax -5.62694 0.585254 -4.44506
lowerneck 4.06989 -5.04128 1.55903
upperneck 4.66762 -7.14141 8.35424
head 1.05025 -3.5752 2.38328
rclavicle -1.82136e-014 -2.06736e-014
rhumerus -5.88357 0.245639 -84.1508
rradius 46.5277
rwrist 32.1713
rhand -28.0741 721.795
rfingers 7.12502
rthumb -1.45752 -28.18
lclavicle -1.82136e-014 -2.06736e-014
lhumerus -190.967 198.083 -89.9662
lradius 49.239
lwrist -2.98243
lhand -16.7914 4.56592
lfingers 7.12502
lthumb 9.43661 34.3347
rfemur 1.71139 1.80542 13.4366
rtibia 40.6364
rfoot -27.9654 -6.18379
rtoes -11.7358
lfemur -187.347 190.585 -200.473
ltibia 47.3776
lfoot 337.297 -9.76147
ltoes 3.516
251
root 1.26971 16.74 0.684281 -564.157 -99.7386 553.664
lowerback 14.7971 1.6751 -1.67169
upperback 2.53547 1.45177 -4.89257
thorax -5.52063 0.622745 -4.51957
lowerneck 3.73289 -5.01596 1.52237
upperneck 4.65551 -7.12018 8.38175
head 1.10534 -3.5559 2.38887
rclavicle -4.07012e-014 1.11319e-014
rhumerus -8.1254 -2.46356 -85.5635
rradius 44.1906
rwrist 33.4318
rhand -26.1242 721.426
rfingers 7.12502
rthumb 0.425823 -28.5532
lclavicle -4.07012e-014 1.11319e-014
lhumerus -192.305 194.675 -89.8026
lradius 45.5954
lwrist -4.15982
lhand -17.2043 4.01638
lfingers 7.12502
lthumb 9.03818 33.8027
rfemur 1.46882 1.54956 13.3841
rtibia 40.5501
rfoot -27.8208 -5.831
rtoes -11.6616
lfemur -187.422 190.454 -200.334
ltibia 47.1573
lfoot 337.115 -9.71946
ltoes 3.43418
252
root 1.271 16.7474 0.677427 -563.836 -99.6113 553.579
lowerback 14.5815 1.71449 -1.64299
upperback 2.51547 1.51556 -4.94264
thorax -5.41742 0.6545 -4.59329
lowerneck 3.35888 -4.98791 1.48161
upperneck 4.67247 -7.0993 8.40787
head 1.1763 -3.53494 2.39356
rclavicle 1.04362e-014 2.38542e-014
rhumerus -10.2056 -5.5011 -86.6628
rradius 41.5545
rwrist 34.5321
rhand -24.4906 721.162
rfingers 7.12502
rthumb 2.00359 -28.8082
lclavicle 1.04362e-014 2.38542e-014
lhumerus -193.416 190.815 -89.9198
lradius 41.7265
lwrist -5.52714
lhand -17.5681 3.43276
lfingers 7.12502
lthumb 8.68712 33.234
rfemur 1.2074 1.25917 13.3252
rtibia 40.4601
rfoot -27.6555 -5.50047
rtoes -11.5704
lfemur -187.528 190.356 -200.205
ltibia 46.9433
lfoot 336.89 -9.64363
ltoes 3.28935
253
root 1.27227 16.7538 0.670359 -563.512 -99.5008 553.472
lowerback 14.402 1.74391 -1.62977
upperback 2.49402 1.56309 -4.97693
thorax -5.33723 0.678529 -4.63944
lowerneck 2.9456 -4.95375 1.41312
upperneck 4.71319 -7.07376 8.43034
head 1.26253 -3.51016 2.40087
rclavicle -1.72446e-014 1.11319e-014
rhumerus -12.1463 -8.92577 -87.3998
rradius 38.5278
rwrist 35.7316
rhand -23.3774 720.966
rfingers 7.12502
rthumb 3.07867 -28.9916
lclavicle -1.72446e-014 1.11319e-014
lhumerus -194.381 186.44 -90.373
lradius 37.7625
lwrist -7.14596
lhand -17.7764 2.96401
lfingers 7.12502
lthumb 8.48611 32.7735
rfemur 0.973947 0.894611 13.244
rtibia 40.3556
rfoot -27.4668 -5.16943
rtoes -11.5827
lfemur -187.616 190.345 -200.11
ltibia 46.7405
lfoot 336.629 -9.50742
ltoes 3.22295
254
root 1.27188 16.7602 0.663691 -563.068 -99.3997 553.232
lowerback 14.2302 1.76702 -1.59505
upperback 2.47676 1.60592 -5.00515
thorax -5.25657 0.700076 -4.69044
lowerneck 2.54319 -4.92408 1.39124
upperneck 4.73709 -7.04943 8.42194
head 1.33867 -3.48627 2.39065
rclavicle -3.67752e-014 -1.59028e-014
rhumerus -13.9584 -12.7233 -87.7398
rradius 35.1032
rwrist 36.8803
rhand -22.8654 720.838
rfingers 7.12502
rthumb 3.57306 -29.1115
lclavicle -3.67752e-014 -1.59028e-014
lhumerus -195.235 181.191 -91.2253
lradius 33.6847
lwrist -9.50658
lhand -17.8421 2.47283
lfingers 7.12502
lthumb 8.42271 32.2849
rfemur 0.784071 0.536363 13.1945
rtibia 40.2178
rfoot -27.3019 -4.82055
rtoes -11.5649
lfemur -187.698 190.371 -200.006
ltibia 46.5636
lfoot 336.309 -9.34891
ltoes 3.03656
255
root 1.27034 16.7643 0.657018 -562.619 -99.3056 552.99
lowerback 14.0505 1.78381 -1.55563
upperback 2.45904 1.64151 -5.03344
thorax -5.17222 0.718125 -4.74232
lowerneck 2.03874 -4.89678 1.30452
upperneck 4.84159 -7.04168 8.44353
head 1.46326 -3.46628 2.39844
rclavicle -5.38209e-014 3.81667e-014
rhumerus -15.71 -16.8892 -87.5575
rradius 31.3001
rwrist 38.1249
rhand -22.9289 720.82
rfingers 7.12502
rthumb 3.5118 -29.1311
lclavicle -5.38209e-014 3.81667e-014
lhumerus -196.037 174.678 -92.6424
lradius 29.464
lwrist -13.1196
lhand -17.8214 1.79556
lfingers 7.12502
lthumb 8.4427 31.6068
rfemur 0.611379 0.179085 13.1476
rtibia 40.0521
rfoot -27.1335 -4.47115
rtoes -11.4636
lfemur -187.792 190.435 -199.922
ltibia 46.422
lfoot 335.91 -9.10719
ltoes 2.77102
256
root 1.26802 16.7674 0.649904 -562.152 -99.2314 552.718
lowerback 13.8647 1.80324 -1.5258
upperback 2.46925 1.68107 -5.04811
thorax -5.05527 0.73875 -4.77336
lowerneck 1.57404 -4.87303 1.22079
upperneck 4.85986 -7.02749 8.46139
head 1.55323 -3.44655 2.40673
rclavicle -6.25675e-014 6.20208e-014
rhumerus -17.4139 -21.8011 -86.7668
rradius 27.1901
rwrist 39.7545
rhand -23.3934 720.869
rfingers 7.12502
rthumb 3.06321 -29.0891
lclavicle -6.25675e-014 6.20208e-014
lhumerus -196.952 166.667 -94.7845
lradius 25.3062
lwrist -18.274
lhand -17.8545 1.12468
lfingers 7.12502
lthumb 8.41075 30.9372
rfemur 0.468921 -0.169762 13.1168
rtibia 39.8659
rfoot -26.9999 -4.19692
rtoes -11.5636
lfemur -187.898 190.535 -199.847
ltibia 46.3266
lfoot 335.488 -8.85864
ltoes 2.47918
257
root 1.2651 16.7693 0.643033 -561.748 -99.1688 552.492
lowerback 13.7089 1.81266 -1.50768
upperback 2.47363 1.70398 -5.06021
thorax -4.96249 0.751083 -4.79344
lowerneck 1.24029 -4.8327 1.17027
upperneck 4.83695 -6.98113 8.46193
head 1.60395 -3.41532 2.40796
rclavicle 2.33572e-014 4.77083e-014
rhumerus -19.234 -27.8084 -85.0788
rradius 22.6869
rwrist 42.3384
rhand -24.067 721.062
rfingers 7.12502
rthumb 2.41263 -28.9046
lclavicle 2.33572e-014 4.77083e-014
lhumerus -198.402 156.858 -98.1009
lradius 21.3254
lwrist -25.4023
lhand -18.0603 0.434478
lfingers 7.12502
lthumb 8.21211 30.2549
rfemur 0.344543 -0.483882 13.0905
rtibia 39.6895
rfoot -26.8749 -3.92982
rtoes -11.4903
lfemur -187.996 190.696 -199.806
ltibia 46.2592
lfoot 335.013 -8.57036
ltoes 2.16026
258
root 1.26229 16.7672 0.635793 -561.251 -99.1206 552.143
lowerback 13.5929 1.81608 -1.47536
upperback 2.4902 1.71962 -5.0659
thorax -4.87895 0.759503 -4.8148
lowerneck 0.899472 -4.80284 1.14122
upperneck 4.77431 -6.94324 8.43524
head 1.64143 -3.38917 2.39655
rclavicle 2.57923e-014 -8.11041e-014
rhumerus -21.802 -36.3053 -81.6893
rradius 17.9642
rwrist 47.4739
rhand -24.7054 721.261
rfingers 7.12502
rthumb 1.79611 -28.7108
lclavicle 2.57923e-014 -8.11041e-014
lhumerus -201.143 144.99 -103.357
lradius 17.7697
lwrist -34.8955
lhand -18.4751 0.0092604
lfingers 7.12502
lthumb 7.81177 29.8449
rfemur 0.234372 -0.79747 13.0907
rtibia 39.5593
rfoot -26.8273 -3.71853
rtoes -11.5758
lfemur -188.071 190.861 -199.756
ltibia 46.2106
lfoot 334.542 -8.27027
ltoes 1.94085
259
root 1.25972 16.7594 0.629093 -560.867 -99.0677 551.897
lowerback 13.4912 1.82055 -1.44639
upperback 2.51513 1.73466 -5.07994
thorax -4.7943 0.767406 -4.8434
lowerneck 0.510803 -4.76859 1.09199
upperneck 4.74142 -6.90659 8.45116
head 1.69997 -3.36161 2.40163
rclavicle 2.38542e-015 9.06458e-014
rhumerus -27.6345 -48.6868 -74.0509
rradius 13.7493
rwrist 57.0925
rhand -24.9455 721.29
rfingers 7.12502
rthumb 1.56425 -28.6841
lclavicle 2.38542e-015 9.06458e-014
lhumerus -207.377 130.817 -112.77
lradius 14.8895
lwrist -47.3731
lhand -19.1277 -0.0761819
lfingers 7.12502
lthumb 7.18193 29.782
rfemur 0.107828 -1.02242 13.0985
rtibia 39.4982
rfoot -26.8649 -3.48761
rtoes -11.6273
lfemur -188.13 191.064 -199.735
ltibia 46.1554
lfoot 334.069 -7.97886
ltoes 1.76388
260
root 1.25854 16.7447 0.621535 -560.671 -99.0362 551.805
lowerback 13.4633 1.82307 -1.44782
upperback 2.53399 1.73837 -5.09313
thorax -4.75842 0.769322 -4.8554
lowerneck 0.10464 -4.74222 1.05848
upperneck 4.71953 -6.8783 8.41356
head 1.76258 -3.33765 2.38581
rclavicle 1.56543e-014 -2.8625e-014
rhumerus -47.4033 -64.6493 -51.2904
rradius 10.6868
rwrist 73.2716
rhand -24.592 720.872
rfingers 7.12502
rthumb 1.90564 -29.0994
lclavicle 1.56543e-014 -2.8625e-014
lhumerus -225.16 115.663 -134.325
lradius 13.0043
lwrist -63.158
lhand -19.9343 0.314754
lfingers 7.12502
lthumb 6.40329 30.198
rfemur -0.0229516 -1.18303 13.1047
rtibia 39.5177
rfoot -26.9914 -3.36397
rtoes -11.6748
lfemur -188.148 191.281 -199.76
ltibia 46.0959
lfoot 333.614 -7.68533
ltoes 1.58667
261
root 1.25807 16.7253 0.614379 -560.358 -99.0162 551.567
lowerback 13.4753 1.81708 -1.41848
upperback 2.56766 1.73381 -5.10281
thorax -4.72851 0.766611 -4.88108
lowerneck -0.355585 -4.70966 1.03922
upperneck 4.73518 -6.84784 8.38425
head 1.84696 -3.30996 2.36906
rclavicle -2.43511e-014 -1.74931e-014
rhumerus -114.733 -68.9757 20.5033
rradius 9.13136
rwrist 96.6037
rhand -23.662 719.964
rfingers 7.12502
rthumb 2.80377 -29.9977
lclavicle -2.43511e-014 -1.74931e-014
lhumerus -273.067 108.47 -186.355
lradius 12.3022
lwrist -79.9802
lhand -20.8195 1.29026
lfingers 7.12502
lthumb 5.54863 31.1976
rfemur -0.154276 -1.29227 13.1521
rtibia 39.6053
rfoot -27.2176 -3.27011
rtoes -11.7197
lfemur -188.133 191.514 -199.772
ltibia 46.0336
lfoot 333.17 -7.41932
ltoes 1.48512
262
root 1.2584 16.7031 0.607708 -560.158 -98.9953 551.422
lowerback 13.5355 1.8054 -1.39149
upperback 2.59673 1.71813 -5.11783
thorax -4.73064 0.757827 -4.91161
lowerneck -0.830043 -4.68451 1.01501
upperneck 4.73924 -6.82569 8.34523
head 1.93058 -3.2867 2.34982
rclavicle -1.86858e-014 5.56597e-014
rhumerus -148.733 -49.731 59.7768
rradius 9.44957
rwrist 120.426
rhand -21.8162 718.471
rfingers 7.12502
rthumb 4.58621 -31.4589
lclavicle -1.86858e-014 5.56597e-014
lhumerus -311.792 116.29 -229.15
lradius 12.5886
lwrist -94.3081
lhand -21.6706 2.94662
lfingers 7.12502
lthumb 4.72684 32.8739
rfemur -0.280342 -1.36172 13.1887
rtibia 39.7348
rfoot -27.5295 -3.17
rtoes -11.7324
lfemur -188.109 191.739 -199.799
ltibia 45.9873
lfoot 332.733 -7.18856
ltoes 1.37305
263
root 1.25942 16.6806 0.599973 -560.081 -98.9724 551.33
lowerback 13.6798 1.79615 -1.39866
upperback 2.6547 1.69859 -5.10618
thorax -4.75056 0.747236 -4.89618
lowerneck -1.37519 -4.65155 0.95742
upperneck 4.76391 -6.79575 8.3089
head 2.03518 -3.2576 2.33621
rclavicle -2.52457e-014 -1.59028e-015
rhumerus -157.402 -25.6428 75.2041
rradius 11.3818
rwrist 144.846
rhand -20.5805 717.368
rfingers 7.12502
rthumb 5.7794 -32.5335
lclavicle -2.52457e-014 -1.59028e-015
lhumerus -324.455 126.806 -245.603
lradius 13.4012
lwrist -104.595
lhand -22.4165 5.16191
lfingers 7.12502
lthumb 4.0066 35.104
rfemur -0.336812 -1.3807 13.239
rtibia 39.8742
rfoot -27.9039 -3.14571
rtoes -11.8768
lfemur -188.017 191.966 -199.853
ltibia 45.9609
lfoot 332.267 -6.89619
ltoes 1.20998
